<svg width="165" height="62" viewBox="0 0 165 62" fill="none" xmlns="http://www.w3.org/2000/svg">
<g clip-path="url(#clip0_15223_4)">
<path fill-rule="evenodd" clip-rule="evenodd" d="M45.0018 5L51.2891 17.5571L50.4983 19.1196L43.1697 5H45.0018ZM65.3871 5L58.1163 19.1196L50.4598 5H52.2341L58.1163 16.051C58.412 15.4861 58.7463 14.8367 59.1191 14.1025C59.492 13.3682 59.8681 12.6121 60.2474 11.8339C60.6267 11.0557 61.0028 10.287 61.3756 9.52769C61.7484 8.76837 62.086 8.07494 62.3881 7.4474C62.6903 6.81986 62.9442 6.28646 63.1499 5.84718C63.3556 5.4079 63.4906 5.12551 63.5549 5H65.3871ZM79.2619 6.37431V5H69.9275V19.1384H79.2619V17.7642H71.3547V12.7752H77.9505V11.4009H71.3547V6.37431H79.2619ZM83.4167 19.1384V5H84.8438V17.7642H92.7511V19.1384H83.4167ZM96.9058 5V19.1384H103.829C103.932 19.1384 104.161 19.1039 104.514 19.0349C104.868 18.9658 105.25 18.8121 105.662 18.5737C105.855 18.4607 106.057 18.3132 106.269 18.1313C106.481 17.9492 106.671 17.7265 106.838 17.4629C107.005 17.1993 107.143 16.8887 107.253 16.5311C107.362 16.1733 107.417 15.756 107.417 15.2791C107.417 14.7394 107.346 14.2687 107.205 13.8671C107.063 13.4655 106.883 13.1204 106.665 12.8317C106.446 12.543 106.198 12.3108 105.922 12.1351C105.646 11.9594 105.366 11.8213 105.083 11.7209C105.366 11.4448 105.61 11.0652 105.816 10.582C106.022 10.0988 106.124 9.51828 106.124 8.84053C106.124 8.3385 106.07 7.90551 105.961 7.54153C105.851 7.17756 105.713 6.86379 105.546 6.60023C105.379 6.33666 105.192 6.11702 104.987 5.94131C104.781 5.7656 104.582 5.62126 104.389 5.50831C104.17 5.3828 103.961 5.28553 103.762 5.2165C103.563 5.14747 103.383 5.09727 103.222 5.06589C103.061 5.03451 102.929 5.01569 102.827 5.00941C102.724 5.00314 102.666 5 102.653 5H96.9058ZM103.791 17.7642C103.842 17.7642 103.984 17.7422 104.215 17.6982C104.447 17.6543 104.694 17.5508 104.958 17.3877C105.221 17.2244 105.456 16.9766 105.662 16.6439C105.867 16.3114 105.97 15.8564 105.97 15.2791C105.97 14.7017 105.867 14.2468 105.662 13.9142C105.456 13.5816 105.221 13.3306 104.958 13.1611C104.694 12.9917 104.443 12.885 104.206 12.8411C103.968 12.7972 103.823 12.7752 103.772 12.7752H98.333V17.7642H103.791ZM103.068 11.3256C102.843 11.3758 102.704 11.4009 102.653 11.4009H98.333V6.37431H102.653C102.679 6.37431 102.801 6.39313 103.019 6.43078C103.238 6.46844 103.476 6.56571 103.733 6.72259C103.99 6.87948 104.225 7.12422 104.437 7.45681C104.649 7.78941 104.755 8.25065 104.755 8.84053C104.755 9.41787 104.656 9.87598 104.456 10.2148C104.257 10.5537 104.032 10.811 103.781 10.9867C103.531 11.1624 103.293 11.2754 103.068 11.3256ZM121.639 5V6.37431H113.731V11.4009H120.327V12.7752H113.731V17.7642H121.639V19.1384H112.304V5H121.639ZM132.331 13.1141L137.153 19.1384H139.043L133.431 12.0598L139.043 5H137.153L132.331 11.0244L127.78 5H125.639L131.251 12.0598L125.639 19.1384H127.78L132.331 13.1141Z" fill="#E4E5EA"/>
</g>
<g clip-path="url(#clip1_15223_4)">
<path fill-rule="evenodd" clip-rule="evenodd" d="M24.5946 0H0V12.7841H1.3208V1.28886H23.2738V5.52746H21.0842V5.53671H21.0684C21.0096 5.65146 20.8861 5.90965 20.698 6.31127C20.5098 6.7129 20.2776 7.20058 20.0012 7.77434C19.7249 8.34809 19.4162 8.98207 19.0752 9.67634C18.7342 10.3706 18.3901 11.0734 18.0433 11.7848C17.6964 12.4963 17.3524 13.1876 17.0114 13.859C16.6704 14.5302 16.3647 15.1241 16.0941 15.6404L10.7143 5.53671H9.09151L16.0941 18.446L22.1009 6.7853H24.5927V6.77176H24.5946V0ZM0 17.1961H0.00609518V17.1819H8.47042L2.42401 5.53671H4.0997L9.84995 17.0175L9.1268 18.446L9.1157 18.4247V18.4398H1.3208V22.7111H23.2738V11.1838H24.5946V24H0V17.1961ZM33.6949 24V0H35.0517V24H33.6949Z" fill="#E4E5EA"/>
</g>
<path d="M4.93 48L2.69 45.39L3.11 45.15L5.53 48H4.93ZM1.08 48V42.78H1.58V48H1.08ZM1.42 45.58V45.15H3.06V45.58H1.42ZM3.14 45.44L2.68 45.36L4.82 42.78H5.37L3.14 45.44ZM9.39359 48.04C8.93359 48.04 8.51693 47.9333 8.14359 47.72C7.77693 47.5067 7.48359 47.2033 7.26359 46.81C7.05026 46.41 6.94359 45.9367 6.94359 45.39C6.94359 44.8433 7.05026 44.3733 7.26359 43.98C7.48359 43.58 7.77693 43.2733 8.14359 43.06C8.51693 42.8467 8.93359 42.74 9.39359 42.74C9.88693 42.74 10.3269 42.8533 10.7136 43.08C11.1069 43.3 11.4136 43.61 11.6336 44.01C11.8603 44.41 11.9736 44.87 11.9736 45.39C11.9736 45.91 11.8603 46.37 11.6336 46.77C11.4136 47.17 11.1069 47.4833 10.7136 47.71C10.3269 47.93 9.88693 48.04 9.39359 48.04ZM6.77359 49.94V42.78H7.25359V44.49L7.17359 45.4L7.27359 46.31V49.94H6.77359ZM9.36359 47.59C9.76359 47.59 10.1236 47.5 10.4436 47.32C10.7636 47.1333 11.0136 46.8733 11.1936 46.54C11.3803 46.2067 11.4736 45.8233 11.4736 45.39C11.4736 44.95 11.3803 44.5667 11.1936 44.24C11.0136 43.9067 10.7636 43.65 10.4436 43.47C10.1236 43.2833 9.76359 43.19 9.36359 43.19C8.96359 43.19 8.60359 43.2833 8.28359 43.47C7.97026 43.65 7.72026 43.9067 7.53359 44.24C7.35359 44.5667 7.26359 44.95 7.26359 45.39C7.26359 45.8233 7.35359 46.2067 7.53359 46.54C7.72026 46.8733 7.97026 47.1333 8.28359 47.32C8.60359 47.5 8.96359 47.59 9.36359 47.59ZM13.393 49.98C13.153 49.98 12.9264 49.94 12.713 49.86C12.5064 49.78 12.3297 49.6633 12.183 49.51L12.433 49.13C12.5664 49.27 12.7097 49.3733 12.863 49.44C13.023 49.5067 13.203 49.54 13.403 49.54C13.643 49.54 13.853 49.4733 14.033 49.34C14.2197 49.2067 14.393 48.9633 14.553 48.61L14.913 47.81L14.983 47.72L17.193 42.78H17.703L15.023 48.71C14.883 49.03 14.7297 49.28 14.563 49.46C14.403 49.6467 14.2264 49.78 14.033 49.86C13.8397 49.94 13.6264 49.98 13.393 49.98ZM14.903 48.13L12.483 42.78H13.013L15.213 47.69L14.903 48.13ZM18.912 48V42.78H23.472V48H22.972V43.08L23.112 43.23H19.272L19.412 43.08V48H18.912ZM25.6308 48V42.78H26.1308V45.16H29.6708V42.78H30.1708V48H29.6708V45.6H26.1308V48H25.6308ZM37.34 48V42.78H37.84V48H37.34ZM34.39 44.68C35.0433 44.6867 35.5367 44.83 35.87 45.11C36.21 45.3833 36.38 45.7867 36.38 46.32C36.38 46.8733 36.2 47.2967 35.84 47.59C35.48 47.8833 34.96 48.0267 34.28 48.02L32.33 48V42.78H32.83V44.66L34.39 44.68ZM34.26 47.62C34.7933 47.6267 35.1967 47.52 35.47 47.3C35.7433 47.08 35.88 46.7533 35.88 46.32C35.88 45.9 35.7433 45.5867 35.47 45.38C35.2033 45.1733 34.8 45.0667 34.26 45.06L32.83 45.05V47.6L34.26 47.62ZM39.9863 48V42.78H40.4863V47.23L44.2063 42.78H44.6463V48H44.1463V43.55L40.4263 48H39.9863ZM42.2963 41.98C41.8896 41.98 41.5529 41.8733 41.2863 41.66C41.0263 41.44 40.8896 41.1367 40.8763 40.75H41.2463C41.2596 41.0233 41.3629 41.24 41.5563 41.4C41.7563 41.56 42.0029 41.64 42.2963 41.64C42.5896 41.64 42.8329 41.56 43.0263 41.4C43.2263 41.24 43.3296 41.0233 43.3363 40.75H43.7163C43.7096 41.1367 43.5729 41.44 43.3063 41.66C43.0463 41.8733 42.7096 41.98 42.2963 41.98ZM49.371 48V42.78H49.871V47.23L53.591 42.78H54.031V48H53.531V43.55L49.811 48H49.371ZM56.1874 48V42.78H56.6874V45.16H60.2274V42.78H60.7274V48H60.2274V45.6H56.6874V48H56.1874ZM63.8366 48V43.08L63.9766 43.23H61.7966V42.78H66.3766V43.23H64.1966L64.3366 43.08V48H63.8366ZM69.363 48.04C68.8364 48.04 68.3697 47.9267 67.963 47.7C67.563 47.4733 67.2464 47.16 67.013 46.76C66.7864 46.36 66.673 45.9033 66.673 45.39C66.673 44.87 66.7797 44.4133 66.993 44.02C67.213 43.62 67.513 43.3067 67.893 43.08C68.273 42.8533 68.6997 42.74 69.173 42.74C69.6464 42.74 70.0697 42.85 70.443 43.07C70.823 43.29 71.1197 43.6 71.333 44C71.553 44.3933 71.663 44.85 71.663 45.37C71.663 45.39 71.6597 45.4133 71.653 45.44C71.653 45.46 71.653 45.4833 71.653 45.51H67.043V45.12H71.383L71.183 45.31C71.1897 44.9033 71.103 44.54 70.923 44.22C70.7497 43.8933 70.513 43.64 70.213 43.46C69.913 43.2733 69.5664 43.18 69.173 43.18C68.7864 43.18 68.4397 43.2733 68.133 43.46C67.833 43.64 67.5964 43.8933 67.423 44.22C67.2497 44.54 67.163 44.9067 67.163 45.32V45.41C67.163 45.8367 67.2564 46.2167 67.443 46.55C67.6364 46.8767 67.8997 47.1333 68.233 47.32C68.5664 47.5 68.9464 47.59 69.373 47.59C69.7064 47.59 70.0164 47.53 70.303 47.41C70.5964 47.29 70.843 47.1067 71.043 46.86L71.333 47.19C71.1064 47.47 70.8197 47.6833 70.473 47.83C70.133 47.97 69.763 48.04 69.363 48.04ZM73.2968 48V42.78H76.8668V43.23H73.6568L73.7968 43.09V48H73.2968ZM80.5655 48.04C80.1055 48.04 79.6888 47.9333 79.3155 47.72C78.9488 47.5067 78.6555 47.2033 78.4355 46.81C78.2221 46.41 78.1155 45.9367 78.1155 45.39C78.1155 44.8433 78.2221 44.3733 78.4355 43.98C78.6555 43.58 78.9488 43.2733 79.3155 43.06C79.6888 42.8467 80.1055 42.74 80.5655 42.74C81.0588 42.74 81.4988 42.8533 81.8855 43.08C82.2788 43.3 82.5855 43.61 82.8055 44.01C83.0321 44.41 83.1455 44.87 83.1455 45.39C83.1455 45.91 83.0321 46.37 82.8055 46.77C82.5855 47.17 82.2788 47.4833 81.8855 47.71C81.4988 47.93 81.0588 48.04 80.5655 48.04ZM77.9455 49.94V42.78H78.4255V44.49L78.3455 45.4L78.4455 46.31V49.94H77.9455ZM80.5355 47.59C80.9355 47.59 81.2955 47.5 81.6155 47.32C81.9355 47.1333 82.1855 46.8733 82.3655 46.54C82.5521 46.2067 82.6455 45.8233 82.6455 45.39C82.6455 44.95 82.5521 44.5667 82.3655 44.24C82.1855 43.9067 81.9355 43.65 81.6155 43.47C81.2955 43.2833 80.9355 43.19 80.5355 43.19C80.1355 43.19 79.7755 43.2833 79.4555 43.47C79.1421 43.65 78.8921 43.9067 78.7055 44.24C78.5255 44.5667 78.4355 44.95 78.4355 45.39C78.4355 45.8233 78.5255 46.2067 78.7055 46.54C78.8921 46.8733 79.1421 47.1333 79.4555 47.32C79.7755 47.5 80.1355 47.59 80.5355 47.59ZM88.0119 48V46.81L87.9919 46.63V44.67C87.9919 44.1833 87.8585 43.8133 87.5919 43.56C87.3319 43.3067 86.9485 43.18 86.4419 43.18C86.0819 43.18 85.7452 43.2433 85.4319 43.37C85.1252 43.49 84.8619 43.6467 84.6419 43.84L84.3919 43.48C84.6519 43.2467 84.9652 43.0667 85.3319 42.94C85.6985 42.8067 86.0819 42.74 86.4819 42.74C87.1285 42.74 87.6252 42.9033 87.9719 43.23C88.3185 43.5567 88.4919 44.0433 88.4919 44.69V48H88.0119ZM86.1319 48.04C85.7452 48.04 85.4085 47.98 85.1219 47.86C84.8419 47.7333 84.6252 47.5567 84.4719 47.33C84.3252 47.1033 84.2519 46.8433 84.2519 46.55C84.2519 46.2833 84.3119 46.0433 84.4319 45.83C84.5585 45.61 84.7652 45.4333 85.0519 45.3C85.3385 45.16 85.7219 45.09 86.2019 45.09H88.1219V45.48H86.2119C85.6719 45.48 85.2919 45.58 85.0719 45.78C84.8585 45.98 84.7519 46.23 84.7519 46.53C84.7519 46.8633 84.8785 47.13 85.1319 47.33C85.3852 47.53 85.7419 47.63 86.2019 47.63C86.6419 47.63 87.0119 47.53 87.3119 47.33C87.6185 47.13 87.8452 46.84 87.9919 46.46L88.1319 46.8C87.9919 47.18 87.7519 47.4833 87.4119 47.71C87.0785 47.93 86.6519 48.04 86.1319 48.04ZM91.4734 48V43.08L91.6134 43.23H89.4334V42.78H94.0134V43.23H91.8334L91.9734 43.08V48H91.4734ZM96.9198 48.04C96.4198 48.04 95.9731 47.9267 95.5798 47.7C95.1931 47.4733 94.8831 47.16 94.6498 46.76C94.4231 46.36 94.3098 45.9033 94.3098 45.39C94.3098 44.87 94.4231 44.4133 94.6498 44.02C94.8831 43.62 95.1931 43.3067 95.5798 43.08C95.9731 42.8533 96.4198 42.74 96.9198 42.74C97.4198 42.74 97.8664 42.8533 98.2598 43.08C98.6531 43.3067 98.9631 43.62 99.1898 44.02C99.4164 44.4133 99.5298 44.87 99.5298 45.39C99.5298 45.9033 99.4164 46.36 99.1898 46.76C98.9631 47.16 98.6531 47.4733 98.2598 47.7C97.8664 47.9267 97.4198 48.04 96.9198 48.04ZM96.9198 47.59C97.3198 47.59 97.6798 47.5 97.9998 47.32C98.3198 47.1333 98.5698 46.8733 98.7498 46.54C98.9298 46.2067 99.0198 45.8233 99.0198 45.39C99.0198 44.95 98.9298 44.5667 98.7498 44.24C98.5698 43.9067 98.3198 43.65 97.9998 43.47C97.6798 43.2833 97.3198 43.19 96.9198 43.19C96.5198 43.19 96.1598 43.2833 95.8398 43.47C95.5264 43.65 95.2764 43.9067 95.0898 44.24C94.9098 44.5667 94.8198 44.95 94.8198 45.39C94.8198 45.8233 94.9098 46.2067 95.0898 46.54C95.2764 46.8733 95.5264 47.1333 95.8398 47.32C96.1598 47.5 96.5198 47.59 96.9198 47.59ZM103.788 48.04C103.328 48.04 102.911 47.9333 102.538 47.72C102.171 47.5067 101.878 47.2033 101.658 46.81C101.445 46.41 101.338 45.9367 101.338 45.39C101.338 44.8433 101.445 44.3733 101.658 43.98C101.878 43.58 102.171 43.2733 102.538 43.06C102.911 42.8467 103.328 42.74 103.788 42.74C104.281 42.74 104.721 42.8533 105.108 43.08C105.501 43.3 105.808 43.61 106.028 44.01C106.255 44.41 106.368 44.87 106.368 45.39C106.368 45.91 106.255 46.37 106.028 46.77C105.808 47.17 105.501 47.4833 105.108 47.71C104.721 47.93 104.281 48.04 103.788 48.04ZM101.168 49.94V42.78H101.648V44.49L101.568 45.4L101.668 46.31V49.94H101.168ZM103.758 47.59C104.158 47.59 104.518 47.5 104.838 47.32C105.158 47.1333 105.408 46.8733 105.588 46.54C105.775 46.2067 105.868 45.8233 105.868 45.39C105.868 44.95 105.775 44.5667 105.588 44.24C105.408 43.9067 105.158 43.65 104.838 43.47C104.518 43.2833 104.158 43.19 103.758 43.19C103.358 43.19 102.998 43.2833 102.678 43.47C102.365 43.65 102.115 43.9067 101.928 44.24C101.748 44.5667 101.658 44.95 101.658 45.39C101.658 45.8233 101.748 46.2067 101.928 46.54C102.115 46.8733 102.365 47.1333 102.678 47.32C102.998 47.5 103.358 47.59 103.758 47.59ZM113.662 48.05C113.142 48.05 112.659 47.9633 112.212 47.79C111.772 47.61 111.389 47.36 111.062 47.04C110.736 46.72 110.482 46.3467 110.302 45.92C110.122 45.4867 110.032 45.0133 110.032 44.5C110.032 43.9867 110.122 43.5167 110.302 43.09C110.482 42.6567 110.736 42.28 111.062 41.96C111.396 41.64 111.782 41.3933 112.222 41.22C112.662 41.04 113.142 40.95 113.662 40.95C114.156 40.95 114.616 41.03 115.042 41.19C115.476 41.35 115.846 41.5933 116.152 41.92L115.832 42.25C115.532 41.9567 115.199 41.7467 114.832 41.62C114.472 41.4867 114.089 41.42 113.682 41.42C113.236 41.42 112.819 41.4967 112.432 41.65C112.052 41.8033 111.719 42.02 111.432 42.3C111.152 42.58 110.932 42.9067 110.772 43.28C110.619 43.6533 110.542 44.06 110.542 44.5C110.542 44.94 110.619 45.3467 110.772 45.72C110.932 46.0933 111.152 46.42 111.432 46.7C111.719 46.98 112.052 47.1967 112.432 47.35C112.819 47.5033 113.236 47.58 113.682 47.58C114.089 47.58 114.472 47.5167 114.832 47.39C115.199 47.2567 115.532 47.04 115.832 46.74L116.152 47.07C115.846 47.3967 115.476 47.6433 115.042 47.81C114.616 47.97 114.156 48.05 113.662 48.05ZM117.861 48V41H120.371C120.957 41 121.461 41.0933 121.881 41.28C122.301 41.4667 122.624 41.7367 122.851 42.09C123.077 42.4367 123.191 42.86 123.191 43.36C123.191 43.8467 123.077 44.2667 122.851 44.62C122.624 44.9667 122.301 45.2367 121.881 45.43C121.461 45.6167 120.957 45.71 120.371 45.71H118.141L118.371 45.47V48H117.861ZM122.721 48L120.901 45.46H121.481L123.301 48H122.721ZM118.371 45.5L118.141 45.26H120.371C121.124 45.26 121.694 45.0933 122.081 44.76C122.474 44.4267 122.671 43.96 122.671 43.36C122.671 42.7533 122.474 42.2867 122.081 41.96C121.694 41.6267 121.124 41.46 120.371 41.46H118.141L118.371 41.21V45.5ZM125.058 48V41H125.488L128.738 46.61H128.508L131.748 41H132.168L132.178 48H131.678L131.668 41.77H131.808L128.738 47.07H128.488L125.408 41.77H125.558V48H125.058ZM1.08 60V54.78H3.28C3.85333 54.78 4.30667 54.8933 4.64 55.12C4.97333 55.3467 5.14 55.6767 5.14 56.11C5.14 56.5367 4.97667 56.86 4.65 57.08C4.33 57.3 3.91333 57.41 3.4 57.41L3.54 57.26C4.15333 57.26 4.60333 57.3733 4.89 57.6C5.17667 57.8267 5.32 58.16 5.32 58.6C5.32 59.0467 5.15667 59.3933 4.83 59.64C4.51 59.88 4.01333 60 3.34 60H1.08ZM1.57 59.59H3.33C3.81667 59.59 4.18667 59.51 4.44 59.35C4.69333 59.19 4.82 58.9333 4.82 58.58C4.82 58.22 4.70667 57.96 4.48 57.8C4.26 57.6333 3.90333 57.55 3.41 57.55H1.57V59.59ZM1.57 57.16H3.25C3.69 57.16 4.03 57.0767 4.27 56.91C4.51667 56.7433 4.64 56.4967 4.64 56.17C4.64 55.8433 4.51667 55.6 4.27 55.44C4.03 55.2733 3.69 55.19 3.25 55.19H1.57V57.16ZM9.84398 60V53H12.354C12.9407 53 13.444 53.0933 13.864 53.28C14.284 53.4667 14.6073 53.7367 14.834 54.09C15.0607 54.4367 15.174 54.86 15.174 55.36C15.174 55.8467 15.0607 56.2667 14.834 56.62C14.6073 56.9733 14.284 57.2433 13.864 57.43C13.444 57.6167 12.9407 57.71 12.354 57.71H10.124L10.354 57.47V60H9.84398ZM10.354 57.5L10.124 57.25H12.354C13.1073 57.25 13.6773 57.0867 14.064 56.76C14.4573 56.4267 14.654 55.96 14.654 55.36C14.654 54.7533 14.4573 54.2867 14.064 53.96C13.6773 53.6267 13.1073 53.46 12.354 53.46H10.124L10.354 53.21V57.5ZM18.6776 60.04C18.1776 60.04 17.7309 59.9267 17.3376 59.7C16.9509 59.4733 16.6409 59.16 16.4076 58.76C16.1809 58.36 16.0676 57.9033 16.0676 57.39C16.0676 56.87 16.1809 56.4133 16.4076 56.02C16.6409 55.62 16.9509 55.3067 17.3376 55.08C17.7309 54.8533 18.1776 54.74 18.6776 54.74C19.1776 54.74 19.6242 54.8533 20.0176 55.08C20.4109 55.3067 20.7209 55.62 20.9476 56.02C21.1742 56.4133 21.2876 56.87 21.2876 57.39C21.2876 57.9033 21.1742 58.36 20.9476 58.76C20.7209 59.16 20.4109 59.4733 20.0176 59.7C19.6242 59.9267 19.1776 60.04 18.6776 60.04ZM18.6776 59.59C19.0776 59.59 19.4376 59.5 19.7576 59.32C20.0776 59.1333 20.3276 58.8733 20.5076 58.54C20.6876 58.2067 20.7776 57.8233 20.7776 57.39C20.7776 56.95 20.6876 56.5667 20.5076 56.24C20.3276 55.9067 20.0776 55.65 19.7576 55.47C19.4376 55.2833 19.0776 55.19 18.6776 55.19C18.2776 55.19 17.9176 55.2833 17.5976 55.47C17.2842 55.65 17.0342 55.9067 16.8476 56.24C16.6676 56.5667 16.5776 56.95 16.5776 57.39C16.5776 57.8233 16.6676 58.2067 16.8476 58.54C17.0342 58.8733 17.2842 59.1333 17.5976 59.32C17.9176 59.5 18.2776 59.59 18.6776 59.59ZM25.0259 60.04C24.5193 60.04 24.0659 59.9267 23.6659 59.7C23.2726 59.4733 22.9593 59.16 22.7259 58.76C22.4993 58.36 22.3859 57.9033 22.3859 57.39C22.3859 56.87 22.4993 56.41 22.7259 56.01C22.9593 55.61 23.2726 55.3 23.6659 55.08C24.0659 54.8533 24.5193 54.74 25.0259 54.74C25.4459 54.74 25.8259 54.82 26.1659 54.98C26.5126 55.14 26.7926 55.38 27.0059 55.7L26.6359 55.97C26.4493 55.7033 26.2159 55.5067 25.9359 55.38C25.6559 55.2533 25.3526 55.19 25.0259 55.19C24.6193 55.19 24.2526 55.2833 23.9259 55.47C23.6059 55.65 23.3526 55.9067 23.1659 56.24C22.9859 56.5667 22.8959 56.95 22.8959 57.39C22.8959 57.83 22.9859 58.2167 23.1659 58.55C23.3526 58.8767 23.6059 59.1333 23.9259 59.32C24.2526 59.5 24.6193 59.59 25.0259 59.59C25.3526 59.59 25.6559 59.5267 25.9359 59.4C26.2159 59.2733 26.4493 59.0767 26.6359 58.81L27.0059 59.08C26.7926 59.4 26.5126 59.64 26.1659 59.8C25.8259 59.96 25.4459 60.04 25.0259 60.04ZM30.4445 60.04C29.9378 60.04 29.4845 59.9267 29.0845 59.7C28.6911 59.4733 28.3778 59.16 28.1445 58.76C27.9178 58.36 27.8045 57.9033 27.8045 57.39C27.8045 56.87 27.9178 56.41 28.1445 56.01C28.3778 55.61 28.6911 55.3 29.0845 55.08C29.4845 54.8533 29.9378 54.74 30.4445 54.74C30.8645 54.74 31.2445 54.82 31.5845 54.98C31.9311 55.14 32.2111 55.38 32.4245 55.7L32.0545 55.97C31.8678 55.7033 31.6345 55.5067 31.3545 55.38C31.0745 55.2533 30.7711 55.19 30.4445 55.19C30.0378 55.19 29.6711 55.2833 29.3445 55.47C29.0245 55.65 28.7711 55.9067 28.5845 56.24C28.4045 56.5667 28.3145 56.95 28.3145 57.39C28.3145 57.83 28.4045 58.2167 28.5845 58.55C28.7711 58.8767 29.0245 59.1333 29.3445 59.32C29.6711 59.5 30.0378 59.59 30.4445 59.59C30.7711 59.59 31.0745 59.5267 31.3545 59.4C31.6345 59.2733 31.8678 59.0767 32.0545 58.81L32.4245 59.08C32.2111 59.4 31.9311 59.64 31.5845 59.8C31.2445 59.96 30.8645 60.04 30.4445 60.04ZM33.9413 60V54.78H34.4413V59.23L38.1613 54.78H38.6013V60H38.1013V55.55L34.3813 60H33.9413ZM40.7577 60V54.78H41.2577V59.23L44.9777 54.78H45.4177V60H44.9177V55.55L41.1977 60H40.7577ZM50.1425 60V54.78H50.6425V59.23L54.3625 54.78H54.8025V60H54.3025V55.55L50.5825 60H50.1425ZM61.6873 60.04C61.1606 60.04 60.6939 59.9267 60.2873 59.7C59.8873 59.4733 59.5706 59.16 59.3373 58.76C59.1106 58.36 58.9973 57.9033 58.9973 57.39C58.9973 56.87 59.1039 56.4133 59.3173 56.02C59.5373 55.62 59.8373 55.3067 60.2173 55.08C60.5973 54.8533 61.0239 54.74 61.4973 54.74C61.9706 54.74 62.3939 54.85 62.7673 55.07C63.1473 55.29 63.4439 55.6 63.6573 56C63.8773 56.3933 63.9873 56.85 63.9873 57.37C63.9873 57.39 63.9839 57.4133 63.9773 57.44C63.9773 57.46 63.9773 57.4833 63.9773 57.51H59.3673V57.12H63.7073L63.5073 57.31C63.5139 56.9033 63.4273 56.54 63.2473 56.22C63.0739 55.8933 62.8373 55.64 62.5373 55.46C62.2373 55.2733 61.8906 55.18 61.4973 55.18C61.1106 55.18 60.7639 55.2733 60.4573 55.46C60.1573 55.64 59.9206 55.8933 59.7473 56.22C59.5739 56.54 59.4873 56.9067 59.4873 57.32V57.41C59.4873 57.8367 59.5806 58.2167 59.7673 58.55C59.9606 58.8767 60.2239 59.1333 60.5573 59.32C60.8906 59.5 61.2706 59.59 61.6973 59.59C62.0306 59.59 62.3406 59.53 62.6273 59.41C62.9206 59.29 63.1673 59.1067 63.3673 58.86L63.6573 59.19C63.4306 59.47 63.1439 59.6833 62.7973 59.83C62.4573 59.97 62.0873 60.04 61.6873 60.04ZM69.011 59.56L68.891 59.71V54.78H69.391V59.71L69.241 59.56H72.281L72.141 59.71V54.78H72.641V60H65.621V54.78H66.121V59.71L65.981 59.56H69.011ZM72.981 61.18V59.85L73.121 60H72.101V59.56H73.461V61.18H72.981ZM76.9607 60.04C76.434 60.04 75.9674 59.9267 75.5607 59.7C75.1607 59.4733 74.844 59.16 74.6107 58.76C74.384 58.36 74.2707 57.9033 74.2707 57.39C74.2707 56.87 74.3774 56.4133 74.5907 56.02C74.8107 55.62 75.1107 55.3067 75.4907 55.08C75.8707 54.8533 76.2974 54.74 76.7707 54.74C77.244 54.74 77.6674 54.85 78.0407 55.07C78.4207 55.29 78.7174 55.6 78.9307 56C79.1507 56.3933 79.2607 56.85 79.2607 57.37C79.2607 57.39 79.2574 57.4133 79.2507 57.44C79.2507 57.46 79.2507 57.4833 79.2507 57.51H74.6407V57.12H78.9807L78.7807 57.31C78.7874 56.9033 78.7007 56.54 78.5207 56.22C78.3474 55.8933 78.1107 55.64 77.8107 55.46C77.5107 55.2733 77.164 55.18 76.7707 55.18C76.384 55.18 76.0374 55.2733 75.7307 55.46C75.4307 55.64 75.194 55.8933 75.0207 56.22C74.8474 56.54 74.7607 56.9067 74.7607 57.32V57.41C74.7607 57.8367 74.854 58.2167 75.0407 58.55C75.234 58.8767 75.4974 59.1333 75.8307 59.32C76.164 59.5 76.544 59.59 76.9707 59.59C77.304 59.59 77.614 59.53 77.9007 59.41C78.194 59.29 78.4407 59.1067 78.6407 58.86L78.9307 59.19C78.704 59.47 78.4174 59.6833 78.0707 59.83C77.7307 59.97 77.3607 60.04 76.9607 60.04ZM77.6307 53.66C77.5374 53.66 77.454 53.6267 77.3807 53.56C77.3074 53.4867 77.2707 53.4 77.2707 53.3C77.2707 53.1933 77.3074 53.1067 77.3807 53.04C77.454 52.9733 77.5374 52.94 77.6307 52.94C77.7307 52.94 77.814 52.9733 77.8807 53.04C77.954 53.1067 77.9907 53.1933 77.9907 53.3C77.9907 53.4 77.954 53.4867 77.8807 53.56C77.814 53.6267 77.7307 53.66 77.6307 53.66ZM75.9107 53.66C75.8107 53.66 75.724 53.6267 75.6507 53.56C75.584 53.4867 75.5507 53.4 75.5507 53.3C75.5507 53.1933 75.584 53.1067 75.6507 53.04C75.724 52.9733 75.8107 52.94 75.9107 52.94C76.0107 52.94 76.094 52.9733 76.1607 53.04C76.234 53.1067 76.2707 53.1933 76.2707 53.3C76.2707 53.4 76.234 53.4867 76.1607 53.56C76.094 53.6267 76.0107 53.66 75.9107 53.66ZM85.5328 60.05C84.9795 60.05 84.5061 59.97 84.1128 59.81C83.7195 59.65 83.4161 59.4233 83.2028 59.13C82.9961 58.8367 82.8928 58.4867 82.8928 58.08C82.8928 57.6867 82.9961 57.35 83.2028 57.07C83.4095 56.79 83.7095 56.5767 84.1028 56.43C84.4961 56.2767 84.9728 56.2 85.5328 56.2C86.0928 56.2 86.5695 56.2767 86.9628 56.43C87.3628 56.5767 87.6661 56.79 87.8728 57.07C88.0861 57.35 88.1928 57.6867 88.1928 58.08C88.1928 58.4867 88.0861 58.8367 87.8728 59.13C87.6595 59.4233 87.3528 59.65 86.9528 59.81C86.5595 59.97 86.0861 60.05 85.5328 60.05ZM85.5328 59.61C86.2061 59.61 86.7328 59.4733 87.1128 59.2C87.4928 58.9267 87.6828 58.5533 87.6828 58.08C87.6828 57.6133 87.4928 57.2433 87.1128 56.97C86.7328 56.6967 86.2061 56.56 85.5328 56.56C84.8595 56.56 84.3361 56.6967 83.9628 56.97C83.5895 57.2433 83.4028 57.6133 83.4028 58.08C83.4028 58.5533 83.5895 58.9267 83.9628 59.2C84.3361 59.4733 84.8595 59.61 85.5328 59.61ZM85.5328 56.49C85.0261 56.49 84.5928 56.4233 84.2328 56.29C83.8795 56.15 83.6095 55.95 83.4228 55.69C83.2361 55.43 83.1428 55.12 83.1428 54.76C83.1428 54.3867 83.2395 54.0667 83.4328 53.8C83.6328 53.5267 83.9128 53.3167 84.2728 53.17C84.6328 53.0233 85.0528 52.95 85.5328 52.95C86.0195 52.95 86.4428 53.0233 86.8028 53.17C87.1628 53.3167 87.4428 53.5267 87.6428 53.8C87.8428 54.0667 87.9428 54.3867 87.9428 54.76C87.9428 55.12 87.8461 55.43 87.6528 55.69C87.4661 55.95 87.1928 56.15 86.8328 56.29C86.4728 56.4233 86.0395 56.49 85.5328 56.49ZM85.5328 56.14C86.1328 56.14 86.5995 56.0167 86.9328 55.77C87.2661 55.5233 87.4328 55.1933 87.4328 54.78C87.4328 54.3467 87.2595 54.0067 86.9128 53.76C86.5728 53.5133 86.1128 53.39 85.5328 53.39C84.9595 53.39 84.5028 53.5133 84.1628 53.76C83.8228 54.0067 83.6528 54.3433 83.6528 54.77C83.6528 55.19 83.8161 55.5233 84.1428 55.77C84.4761 56.0167 84.9395 56.14 85.5328 56.14ZM94.4595 60.04C93.9529 60.04 93.4995 59.9267 93.0995 59.7C92.7062 59.4733 92.3929 59.16 92.1595 58.76C91.9329 58.36 91.8195 57.9033 91.8195 57.39C91.8195 56.87 91.9329 56.41 92.1595 56.01C92.3929 55.61 92.7062 55.3 93.0995 55.08C93.4995 54.8533 93.9529 54.74 94.4595 54.74C94.8795 54.74 95.2595 54.82 95.5995 54.98C95.9462 55.14 96.2262 55.38 96.4395 55.7L96.0695 55.97C95.8829 55.7033 95.6495 55.5067 95.3695 55.38C95.0895 55.2533 94.7862 55.19 94.4595 55.19C94.0529 55.19 93.6862 55.2833 93.3595 55.47C93.0395 55.65 92.7862 55.9067 92.5995 56.24C92.4195 56.5667 92.3295 56.95 92.3295 57.39C92.3295 57.83 92.4195 58.2167 92.5995 58.55C92.7862 58.8767 93.0395 59.1333 93.3595 59.32C93.6862 59.5 94.0529 59.59 94.4595 59.59C94.7862 59.59 95.0895 59.5267 95.3695 59.4C95.6495 59.2733 95.8829 59.0767 96.0695 58.81L96.4395 59.08C96.2262 59.4 95.9462 59.64 95.5995 59.8C95.2595 59.96 94.8795 60.04 94.4595 60.04ZM98.7488 60V55.08L98.8888 55.23H96.7087V54.78H101.289V55.23H99.1088L99.2488 55.08V60H98.7488ZM104.989 60.04C104.529 60.04 104.113 59.9333 103.739 59.72C103.373 59.5067 103.079 59.2033 102.859 58.81C102.646 58.41 102.539 57.9367 102.539 57.39C102.539 56.8433 102.646 56.3733 102.859 55.98C103.079 55.58 103.373 55.2733 103.739 55.06C104.113 54.8467 104.529 54.74 104.989 54.74C105.483 54.74 105.923 54.8533 106.309 55.08C106.703 55.3 107.009 55.61 107.229 56.01C107.456 56.41 107.569 56.87 107.569 57.39C107.569 57.91 107.456 58.37 107.229 58.77C107.009 59.17 106.703 59.4833 106.309 59.71C105.923 59.93 105.483 60.04 104.989 60.04ZM102.369 61.94V54.78H102.849V56.49L102.769 57.4L102.869 58.31V61.94H102.369ZM104.959 59.59C105.359 59.59 105.719 59.5 106.039 59.32C106.359 59.1333 106.609 58.8733 106.789 58.54C106.976 58.2067 107.069 57.8233 107.069 57.39C107.069 56.95 106.976 56.5667 106.789 56.24C106.609 55.9067 106.359 55.65 106.039 55.47C105.719 55.2833 105.359 55.19 104.959 55.19C104.559 55.19 104.199 55.2833 103.879 55.47C103.566 55.65 103.316 55.9067 103.129 56.24C102.949 56.5667 102.859 56.95 102.859 57.39C102.859 57.8233 102.949 58.2067 103.129 58.54C103.316 58.8733 103.566 59.1333 103.879 59.32C104.199 59.5 104.559 59.59 104.959 59.59ZM112.436 60V58.81L112.416 58.63V56.67C112.416 56.1833 112.282 55.8133 112.016 55.56C111.756 55.3067 111.372 55.18 110.866 55.18C110.506 55.18 110.169 55.2433 109.856 55.37C109.549 55.49 109.286 55.6467 109.066 55.84L108.816 55.48C109.076 55.2467 109.389 55.0667 109.756 54.94C110.122 54.8067 110.506 54.74 110.906 54.74C111.552 54.74 112.049 54.9033 112.396 55.23C112.742 55.5567 112.916 56.0433 112.916 56.69V60H112.436ZM110.556 60.04C110.169 60.04 109.832 59.98 109.546 59.86C109.266 59.7333 109.049 59.5567 108.896 59.33C108.749 59.1033 108.676 58.8433 108.676 58.55C108.676 58.2833 108.736 58.0433 108.856 57.83C108.982 57.61 109.189 57.4333 109.476 57.3C109.762 57.16 110.146 57.09 110.626 57.09H112.546V57.48H110.636C110.096 57.48 109.716 57.58 109.496 57.78C109.282 57.98 109.176 58.23 109.176 58.53C109.176 58.8633 109.302 59.13 109.556 59.33C109.809 59.53 110.166 59.63 110.626 59.63C111.066 59.63 111.436 59.53 111.736 59.33C112.042 59.13 112.269 58.84 112.416 58.46L112.556 58.8C112.416 59.18 112.176 59.4833 111.836 59.71C111.502 59.93 111.076 60.04 110.556 60.04ZM114.947 60V54.78H115.447V57.16H118.987V54.78H119.487V60H118.987V57.6H115.447V60H114.947ZM124.906 60V58.81L124.886 58.63V56.67C124.886 56.1833 124.753 55.8133 124.486 55.56C124.226 55.3067 123.843 55.18 123.336 55.18C122.976 55.18 122.64 55.2433 122.326 55.37C122.02 55.49 121.756 55.6467 121.536 55.84L121.286 55.48C121.546 55.2467 121.86 55.0667 122.226 54.94C122.593 54.8067 122.976 54.74 123.376 54.74C124.023 54.74 124.52 54.9033 124.866 55.23C125.213 55.5567 125.386 56.0433 125.386 56.69V60H124.906ZM123.026 60.04C122.64 60.04 122.303 59.98 122.016 59.86C121.736 59.7333 121.52 59.5567 121.366 59.33C121.22 59.1033 121.146 58.8433 121.146 58.55C121.146 58.2833 121.206 58.0433 121.326 57.83C121.453 57.61 121.66 57.4333 121.946 57.3C122.233 57.16 122.616 57.09 123.096 57.09H125.016V57.48H123.106C122.566 57.48 122.186 57.58 121.966 57.78C121.753 57.98 121.646 58.23 121.646 58.53C121.646 58.8633 121.773 59.13 122.026 59.33C122.28 59.53 122.636 59.63 123.096 59.63C123.536 59.63 123.906 59.53 124.206 59.33C124.513 59.13 124.74 58.84 124.886 58.46L125.026 58.8C124.886 59.18 124.646 59.4833 124.306 59.71C123.973 59.93 123.546 60.04 123.026 60.04ZM126.538 60L128.708 57.18L128.698 57.42L126.648 54.78H127.218L129.008 57.09H128.798L130.578 54.78H131.138L129.068 57.45L129.078 57.18L131.278 60H130.688L128.798 57.54L128.988 57.56L127.108 60H126.538Z" fill="#E4E5EA"/>
<defs>
<clipPath id="clip0_15223_4">
<rect width="97" height="15" fill="white" transform="translate(43 5)"/>
</clipPath>
<clipPath id="clip1_15223_4">
<rect width="35" height="24" fill="white"/>
</clipPath>
</defs>
</svg>
